<svg width="447" height="447" viewBox="0 0 447 447" fill="none" xmlns="http://www.w3.org/2000/svg">
<path d="M0.0253906 446.163H446.025V0.162598H0.0253906V446.163Z" fill="#F4EDE9"/>
<path d="M134.479 188.207C128.482 188.207 123.584 190.359 119.784 194.662C115.984 198.965 114.084 204.252 114.084 210.524C114.084 216.75 116.236 222.038 120.539 226.387C124.842 230.736 130.084 232.91 136.264 232.91C141.575 232.91 145.992 232.178 149.517 230.713V210.524H152.813V232.223C148.831 234.695 143.246 235.931 136.058 235.931C128.917 235.931 122.874 233.482 117.93 228.584C112.986 223.64 110.514 217.62 110.514 210.524C110.514 203.383 112.757 197.386 117.243 192.533C121.729 187.635 127.475 185.185 134.479 185.185C139.972 185.185 145.535 186.101 151.165 187.932L150.273 190.679C144.779 189.031 139.515 188.207 134.479 188.207ZM169.861 235.107V186.216C174.21 185.895 177.85 185.735 180.78 185.735C185.449 185.735 189.295 186.948 192.316 189.374C195.337 191.755 196.848 195.142 196.848 199.537C196.848 202.513 195.978 205.282 194.239 207.846C192.499 210.41 190.553 212.447 188.402 213.958C190.096 216.292 192.179 219.085 194.651 222.335C197.169 225.54 198.794 227.554 199.526 228.378C202.319 231.354 205.477 233.047 209.002 233.459L208.934 235.657C206.141 235.611 203.875 235.199 202.136 234.421C200.396 233.597 198.725 232.361 197.123 230.713C195.566 229.065 191.652 223.937 185.38 215.331C180.894 215.331 176.82 215.194 173.157 214.919V235.107H169.861ZM183.389 212.584C185.403 212.584 187.555 211.257 189.844 208.601C192.133 205.946 193.277 202.879 193.277 199.4C193.277 195.875 192.087 193.22 189.707 191.434C187.372 189.603 184.259 188.688 180.368 188.688C178.308 188.688 175.904 188.779 173.157 188.962V212.241C176.82 212.47 180.23 212.584 183.389 212.584ZM218.973 228.584C214.441 223.686 212.175 217.666 212.175 210.524C212.175 203.383 214.441 197.386 218.973 192.533C223.551 187.635 229.319 185.185 236.278 185.185C243.236 185.185 249.004 187.635 253.582 192.533C258.16 197.386 260.449 203.383 260.449 210.524C260.449 217.666 258.16 223.686 253.582 228.584C249.004 233.482 243.236 235.931 236.278 235.931C229.319 235.931 223.551 233.482 218.973 228.584ZM221.445 194.662C217.646 198.919 215.746 204.207 215.746 210.524C215.746 216.842 217.646 222.152 221.445 226.455C225.291 230.758 230.235 232.91 236.278 232.91C242.366 232.91 247.31 230.758 251.11 226.455C254.955 222.152 256.878 216.842 256.878 210.524C256.878 204.207 254.955 198.919 251.11 194.662C247.31 190.359 242.366 188.207 236.278 188.207C230.189 188.207 225.245 190.359 221.445 194.662ZM296.899 190.336C293.557 188.916 290.238 188.207 286.942 188.207C280.258 188.207 276.916 190.679 276.916 195.623C276.916 197.775 277.672 199.789 279.183 201.666C280.693 203.497 282.524 205.145 284.676 206.61C286.828 208.029 288.979 209.494 291.131 211.005C293.282 212.516 295.114 214.324 296.624 216.43C298.135 218.535 298.89 220.824 298.89 223.296C298.89 227.462 297.494 230.621 294.702 232.773C291.909 234.879 288.041 235.931 283.097 235.931C278.198 235.931 274.01 234.673 270.53 232.155L272.178 229.683C275.474 231.834 279.091 232.91 283.028 232.91C286.965 232.91 289.986 232.132 292.092 230.575C294.198 228.973 295.251 226.684 295.251 223.708C295.251 221.648 294.496 219.703 292.985 217.872C291.474 215.995 289.643 214.324 287.491 212.859C285.34 211.348 283.188 209.815 281.037 208.258C278.885 206.702 277.054 204.848 275.543 202.696C274.032 200.544 273.277 198.232 273.277 195.76C273.277 192.51 274.467 189.947 276.848 188.07C279.274 186.147 282.524 185.185 286.599 185.185C290.719 185.185 294.541 186.01 298.066 187.658L296.899 190.336ZM334.452 190.336C331.11 188.916 327.791 188.207 324.495 188.207C317.811 188.207 314.469 190.679 314.469 195.623C314.469 197.775 315.225 199.789 316.736 201.666C318.246 203.497 320.077 205.145 322.229 206.61C324.381 208.029 326.532 209.494 328.684 211.005C330.835 212.516 332.667 214.324 334.177 216.43C335.688 218.535 336.443 220.824 336.443 223.296C336.443 227.462 335.047 230.621 332.255 232.773C329.462 234.879 325.594 235.931 320.65 235.931C315.751 235.931 311.563 234.673 308.083 232.155L309.731 229.683C313.027 231.834 316.644 232.91 320.581 232.91C324.518 232.91 327.539 232.132 329.645 230.575C331.751 228.973 332.804 226.684 332.804 223.708C332.804 221.648 332.049 219.703 330.538 217.872C329.027 215.995 327.196 214.324 325.044 212.859C322.893 211.348 320.741 209.815 318.59 208.258C316.438 206.702 314.607 204.848 313.096 202.696C311.585 200.544 310.83 198.232 310.83 195.76C310.83 192.51 312.02 189.947 314.401 188.07C316.827 186.147 320.077 185.185 324.152 185.185C328.272 185.185 332.094 186.01 335.619 187.658L334.452 190.336Z" fill="#123E51"/>
</svg>

